<svg xmlns="http://www.w3.org/2000/svg" viewBox="0 0 267.22 197.65"><defs><style>.cls-1{fill:#fff;}</style></defs><title>Asset 1</title><g id="Layer_2" data-name="Layer 2"><g id="Layer_1-2" data-name="Layer 1"><g id="Layer_2-2" data-name="Layer 2"><g id="Layer_1-2-2" data-name="Layer 1-2"><path class="cls-1" d="M0,104H19.57l11.82,19.16L43.23,104H62.6V159.3H44.38V133.91l-1.09-.47-12,18.45-12.9-19.67V160H0Z"/><path class="cls-1" d="M113.41,89.1l3.76-15.43c-.89-1.8-2.25-1.42-3.29-1.8-7.37-2.71-10.3-5.58-10.09-13.32.38-14.15.1-28.32.11-42.48,0-9,5.94-15.8,14.95-15.89q41.24-.39,82.47,0C209.17.23,215,6.65,215,14.49q.09,22.74,0,45.48c0,6.73-3.36,10.83-10,12.13a42.51,42.51,0,0,1-7.92.76q-25.74.1-51.48,0a15.36,15.36,0,0,0-8.45,2.34C129.72,79.64,122.23,83.93,113.41,89.1Zm45.32-47.23a7.63,7.63,0,0,0,8-6.65,7.34,7.34,0,1,0-14.57-1.81q0,.22,0,.45a7.61,7.61,0,0,0,6.61,8ZM131.85,27.2a7.75,7.75,0,0,0-7.42,7.29,7.79,7.79,0,0,0,7.29,7.43,7.36,7.36,0,1,0,.13-14.72Zm55.08,0a7.35,7.35,0,1,0,7.25,7.45q0-.09,0-.18a7.4,7.4,0,0,0-7.25-7.27Z"/><path class="cls-1" d="M147.33,109.38l-8.78,12.08c-12.9-5.3-14.48-5.6-20.36-3.95-1.13,2.88,1,3.35,3,3.88,4.5,1.18,9,2.19,13.49,3.54,9.59,2.91,14.14,8.1,14.15,15.78,0,8.45-5.5,14.93-15,17.57-12,3.36-27.66.08-37.91-8.11,2.57-4.22,6.11-7.65,9.36-11.59,7.72,3.89,15.23,8.27,24.16,4.9.06-3.15-2-3.33-3.67-3.8-4.32-1.19-8.71-2.17-13-3.49-10-3.11-14.3-8.1-14.11-16.18.21-8.73,5.42-15.08,15.18-17.15C125.65,100.33,136.91,101.85,147.33,109.38Z"/><path class="cls-1" d="M154.54,103.24c10.8,0,21.33-.78,31.7.2,12.19,1.15,18.45,9.08,18,20.42-.47,10.89-8.21,18.24-20.39,19.16-3.44.26-6.91,0-10.81,0v15.51H158.18c-1.14,0-2.35.23-3.62-.84Zm18.71,26.7c4.62,0,9.17,1.12,12-3.42a5,5,0,0,0-.37-6c-3.13-3.78-7.35-2.61-11.6-2.49Z"/><path class="cls-1" d="M227.65,103.48c-5.51-3.24-10.69-6.13-15.7-9.3A15.7,15.7,0,0,0,203,91.77q-23.47.17-46.94,0c-8.92-.06-14.19-4.5-14.76-12.14,1.57-1.28,3.46-.67,5.2-.67q30.71-.07,61.43,0c10.76,0,14.26-3.49,14.31-14.37V28.36c8-1.89,12.71,1.32,12.8,8.83.16,14.48.07,29,0,43.45,0,6.08-2.79,10.13-9.12,11.46C225.43,95.87,227.79,99.16,227.65,103.48Z"/><path class="cls-1" d="M90.49,159.41H72.35V104.09H90.49Z"/><path class="cls-1" d="M15.51,190.59V169h-9v-3.43H29.7V169h-9v21.6Z"/><path class="cls-1" d="M33.2,190.59v-26.7h5v11.64q2.45-3.92,6.33-3.92a5,5,0,0,1,3.92,1.57,6.13,6.13,0,0,1,1.44,4.3V190.6h-5V178.7q0-3.16-2.1-3.16-2.38,0-4.58,3.37V190.6Z"/><path class="cls-1" d="M56,190.59V172h5v3.5a6.28,6.28,0,0,1,5.92-3.92,4.24,4.24,0,0,1,.93.1v4.46a5.79,5.79,0,0,0-2-.39,5.59,5.59,0,0,0-4.87,3v11.79Z"/><path class="cls-1" d="M86.81,190A24,24,0,0,1,80,191a10,10,0,0,1-7.34-2.64,9.63,9.63,0,0,1-2.69-7.2,9.75,9.75,0,0,1,2.46-6.94A8.49,8.49,0,0,1,79,171.6q4.08,0,6,2.57t1.88,8.13H75.29q.51,5.31,5.83,5.31a16.62,16.62,0,0,0,5.68-1.17ZM75.23,179.48h6.66q0-4.75-3.06-4.75T75.23,179.48Z"/><path class="cls-1" d="M101.08,188.59A7.63,7.63,0,0,1,95.72,191a5.42,5.42,0,0,1-4-1.49,5.16,5.16,0,0,1-1.52-3.86,5.39,5.39,0,0,1,2.46-4.74,12.4,12.4,0,0,1,7-1.67H101v-1.69q0-2.89-3.3-2.89a12.16,12.16,0,0,0-5.92,1.66v-3.45a18.94,18.94,0,0,1,6.73-1.29q7.29,0,7.29,5.8v8.22q0,2.18,1.4,2.18a4.11,4.11,0,0,0,.66-.07l.12,2.81a10,10,0,0,1-2.81.47q-3.08,0-4-2.42Zm0-2.69v-3.77H99.9q-4.85,0-4.85,3a2.4,2.4,0,0,0,2.36,2.44h.08a5.41,5.41,0,0,0,3.59-1.66Z"/><path class="cls-1" d="M121.92,190.49a10.77,10.77,0,0,1-2.82.52q-6.51,0-6.51-6.09v-9.77H110.5V172h2.08v-3.13l5-.58V172h4v3.13h-4v9.12q0,3.42,2.79,3.42a6.16,6.16,0,0,0,1.54-.24Z"/><path class="cls-1" d="M136.4,190.37v-4.3a18.51,18.51,0,0,0,6.92,1.69,5.06,5.06,0,0,0,3.17-.9,2.92,2.92,0,0,0,1.16-2.44,3,3,0,0,0-.73-2.05,11.07,11.07,0,0,0-2.76-2l-1.67-.93a16.46,16.46,0,0,1-4.75-3.63,6.3,6.3,0,0,1-1.39-4.05,6.12,6.12,0,0,1,2.28-5,9.14,9.14,0,0,1,6-1.88,30.45,30.45,0,0,1,6.75.86v4a18.63,18.63,0,0,0-6.07-1.44,4.55,4.55,0,0,0-2.77.77,2.4,2.4,0,0,0-1,2,2.57,2.57,0,0,0,.73,1.81,12.18,12.18,0,0,0,2.74,1.91l1.79,1a17.5,17.5,0,0,1,5,3.74,7,7,0,0,1-1.22,9.62,11.5,11.5,0,0,1-7.14,2A34.37,34.37,0,0,1,136.4,190.37Z"/><path class="cls-1" d="M157.59,190.59v-26.7h5v11.64q2.45-3.92,6.33-3.92a5.05,5.05,0,0,1,3.92,1.57,6.13,6.13,0,0,1,1.44,4.3V190.6h-5V178.7q0-3.16-2.1-3.16-2.38,0-4.58,3.37V190.6Z"/><path class="cls-1" d="M189.43,188.59a7.63,7.63,0,0,1-5.36,2.42,5.42,5.42,0,0,1-4-1.49,5.15,5.15,0,0,1-1.52-3.86,5.39,5.39,0,0,1,2.46-4.74,12.4,12.4,0,0,1,7-1.67h1.34v-1.69q0-2.89-3.3-2.89a12.16,12.16,0,0,0-5.92,1.66v-3.45a18.94,18.94,0,0,1,6.73-1.29q7.29,0,7.29,5.8v8.22q0,2.18,1.4,2.18a4.11,4.11,0,0,0,.66-.07l.12,2.81a10,10,0,0,1-2.81.47q-3.08,0-4-2.42Zm0-2.69v-3.77h-1.18q-4.85,0-4.85,3a2.4,2.4,0,0,0,2.36,2.44h.08a5.41,5.41,0,0,0,3.59-1.66Z"/><path class="cls-1" d="M200.7,190.59V172h5v3.5a6.28,6.28,0,0,1,5.92-3.92,4.24,4.24,0,0,1,.93.1v4.46a5.79,5.79,0,0,0-2-.39,5.58,5.58,0,0,0-4.87,3v11.79Z"/><path class="cls-1" d="M216.44,168.89v-4.18h5v4.18Zm0,21.7V172h5v18.57Z"/><path class="cls-1" d="M227.71,190.59V172h5v3.5q2.45-3.92,6.33-3.92a5.05,5.05,0,0,1,3.92,1.57,6.13,6.13,0,0,1,1.44,4.3v13.12h-5V178.7q0-3.16-2.1-3.16-2.38,0-4.58,3.37V190.6Z"/><path class="cls-1" d="M250.59,196.36l.41-3.64a14.15,14.15,0,0,0,5.9,1.42,5.66,5.66,0,0,0,4-1.18,5.13,5.13,0,0,0,1.24-3.84v-2.54a6.22,6.22,0,0,1-6,4,6.34,6.34,0,0,1-5.26-2.48,10.57,10.57,0,0,1-1.94-6.71,10.94,10.94,0,0,1,2.18-7.13,7.1,7.1,0,0,1,5.8-2.68,7.51,7.51,0,0,1,5.26,2.3l.52-1.88h4.5v14.17a25.64,25.64,0,0,1-.52,6.12,6.49,6.49,0,0,1-2,3.2q-2.5,2.16-7,2.16A21.3,21.3,0,0,1,250.59,196.36Zm11.55-12.68v-6.85a5.12,5.12,0,0,0-3.79-2,3.43,3.43,0,0,0-3,1.72,8.44,8.44,0,0,0-1.12,4.63q0,5.45,3.5,5.45,2.41,0,4.41-3Z"/></g></g></g></g></svg>